<?xml version="1.0" standalone="no"?>
<!DOCTYPE svg PUBLIC "-//W3C//DTD SVG 20010904//EN"
 "http://www.w3.org/TR/2001/REC-SVG-20010904/DTD/svg10.dtd">
<svg version="1.0" xmlns="http://www.w3.org/2000/svg"
 width="500.000000pt" height="500.000000pt" viewBox="0 0 500.000000 500.000000"
 preserveAspectRatio="xMidYMid meet">
<metadata>
Created by potrace 1.11, written by Peter Selinger 2001-2013
</metadata>
<g transform="translate(0.000000,500.000000) scale(0.100000,-0.100000)"
fill="#000000" stroke="none">
<path d="M2309 4946 c-2 -2 -31 -6 -64 -10 -123 -12 -161 -17 -195 -26 -19 -5
-48 -12 -65 -14 -56 -10 -72 -14 -146 -36 -684 -196 -1243 -666 -1548 -1303
-58 -121 -111 -256 -138 -352 -45 -159 -60 -234 -89 -420 -10 -67 -13 -466 -3
-540 22 -181 27 -207 60 -340 71 -286 175 -521 339 -769 169 -253 358 -448
635 -654 62 -46 226 -143 330 -194 170 -85 456 -181 605 -203 25 -4 47 -8 50
-10 3 -2 33 -7 65 -10 33 -4 69 -10 80 -12 11 -3 119 -7 240 -8 270 -4 404 10
650 71 350 87 703 269 985 509 224 191 446 472 585 740 113 216 213 510 240
705 3 25 8 59 11 75 18 124 22 197 19 390 -2 121 -6 231 -9 245 -2 14 -7 50
-11 80 -3 30 -8 61 -11 69 -3 8 -7 30 -10 50 -21 147 -122 438 -215 623 -40
80 -146 258 -159 268 -4 3 -13 16 -20 30 -45 85 -302 367 -440 481 -364 303
-812 496 -1285 553 -96 12 -476 21 -486 12z"/>
</g>
</svg>
